<svg width="48" height="48" viewBox="0 0 48 48" fill="none" xmlns="http://www.w3.org/2000/svg">
<path opacity="0.2" d="M42 23.8443C42.0119 25.2432 41.8615 26.6388 41.5519 28.0031C41.3247 28.9967 40.7669 29.8837 39.9698 30.519C39.1727 31.1542 38.1836 31.5001 37.1644 31.4999H28.5C27.3065 31.4999 26.1619 31.974 25.318 32.818C24.4741 33.6619 24 34.8065 24 35.9999C23.9995 36.7196 23.8264 37.4286 23.4952 38.0675C23.164 38.7064 22.6845 39.2566 22.0967 39.6718C21.509 40.0871 20.8303 40.3554 20.1174 40.4541C19.4046 40.5528 18.6785 40.4792 18 40.2393C11.0119 37.7699 6 31.8393 6 23.9999C5.99974 19.2583 7.87041 14.7082 11.2056 11.3378C14.5408 7.96753 19.0712 6.04933 23.8125 5.99993C33.72 5.90056 41.9156 13.9406 42 23.8443Z" fill="#272D55"/>
<path d="M37.6444 10.1044C34.0138 6.50923 29.1094 4.49477 24 4.50001H23.7994C18.6625 4.55286 13.754 6.63063 10.1403 10.2819C6.52662 13.9331 4.49973 18.8629 4.5 24C4.5 32.0625 9.48375 38.8238 17.505 41.6569C18.4097 41.9759 19.3777 42.0732 20.3278 41.9409C21.2779 41.8085 22.1825 41.4503 22.9656 40.8962C23.7486 40.3421 24.3875 39.6084 24.8285 38.7565C25.2694 37.9045 25.4997 36.9593 25.5 36C25.5 35.2044 25.8161 34.4413 26.3787 33.8787C26.9413 33.3161 27.7043 33 28.5 33H37.1644C38.5254 33.0066 39.8477 32.5475 40.9119 31.6989C41.976 30.8504 42.7179 29.6634 43.0144 28.335C43.3497 26.8588 43.5126 25.3487 43.5 23.835C43.4809 21.2728 42.9535 18.7398 41.9483 16.3828C40.9432 14.0259 39.4803 11.8918 37.6444 10.1044ZM40.0819 27.675C39.9329 28.3368 39.5625 28.9279 39.0321 29.3507C38.5016 29.7734 37.8427 30.0025 37.1644 30H28.5C26.9087 30 25.3826 30.6322 24.2574 31.7574C23.1321 32.8826 22.5 34.4087 22.5 36C22.4993 36.4792 22.3838 36.9512 22.1633 37.3766C21.9427 37.802 21.6234 38.1684 21.2322 38.4451C20.8409 38.7218 20.3891 38.9007 19.9145 38.9669C19.4399 39.0331 18.9564 38.9847 18.5044 38.8256C11.7169 36.4313 7.5 30.75 7.5 24C7.49977 19.6533 9.21471 15.4822 12.2723 12.3927C15.3298 9.30317 19.4829 7.54496 23.8294 7.50001H23.9981C28.3447 7.51689 32.5105 9.24147 35.5972 12.3018C38.6839 15.3622 40.444 19.5131 40.4981 23.8594C40.5093 25.1428 40.3721 26.4231 40.0894 27.675H40.0819ZM26.25 14.25C26.25 14.695 26.118 15.13 25.8708 15.5C25.6236 15.8701 25.2722 16.1584 24.861 16.3287C24.4499 16.499 23.9975 16.5436 23.561 16.4568C23.1246 16.37 22.7237 16.1557 22.409 15.841C22.0943 15.5263 21.88 15.1254 21.7932 14.689C21.7064 14.2525 21.751 13.8001 21.9213 13.389C22.0916 12.9778 22.38 12.6264 22.75 12.3792C23.12 12.132 23.555 12 24 12C24.5967 12 25.169 12.2371 25.591 12.659C26.0129 13.081 26.25 13.6533 26.25 14.25ZM18 18.75C18 19.195 17.868 19.63 17.6208 20C17.3736 20.3701 17.0222 20.6584 16.611 20.8287C16.1999 20.999 15.7475 21.0436 15.311 20.9568C14.8746 20.87 14.4737 20.6557 14.159 20.341C13.8443 20.0263 13.63 19.6254 13.5432 19.189C13.4564 18.7525 13.501 18.3001 13.6713 17.889C13.8416 17.4778 14.13 17.1264 14.5 16.8792C14.87 16.632 15.305 16.5 15.75 16.5C16.3467 16.5 16.919 16.7371 17.341 17.159C17.7629 17.581 18 18.1533 18 18.75ZM18 29.25C18 29.695 17.868 30.13 17.6208 30.5C17.3736 30.8701 17.0222 31.1584 16.611 31.3287C16.1999 31.499 15.7475 31.5436 15.311 31.4568C14.8746 31.37 14.4737 31.1557 14.159 30.841C13.8443 30.5263 13.63 30.1254 13.5432 29.689C13.4564 29.2525 13.501 28.8001 13.6713 28.389C13.8416 27.9778 14.13 27.6264 14.5 27.3792C14.87 27.132 15.305 27 15.75 27C16.3467 27 16.919 27.2371 17.341 27.659C17.7629 28.081 18 28.6533 18 29.25ZM34.5 18.75C34.5 19.195 34.368 19.63 34.1208 20C33.8736 20.3701 33.5222 20.6584 33.111 20.8287C32.6999 20.999 32.2475 21.0436 31.811 20.9568C31.3746 20.87 30.9737 20.6557 30.659 20.341C30.3443 20.0263 30.13 19.6254 30.0432 19.189C29.9564 18.7525 30.001 18.3001 30.1713 17.889C30.3416 17.4778 30.63 17.1264 31 16.8792C31.37 16.632 31.805 16.5 32.25 16.5C32.8467 16.5 33.419 16.7371 33.841 17.159C34.2629 17.581 34.5 18.1533 34.5 18.75Z" fill="#272D55"/>
</svg>
