<svg width="28" height="20" viewBox="0 0 28 20" fill="none" xmlns="http://www.w3.org/2000/svg">
<path d="M9.975 0H2.1C1.54305 0 1.0089 0.221249 0.615076 0.615076C0.221249 1.0089 0 1.54305 0 2.1V10.5C0 11.057 0.221249 11.5911 0.615076 11.9849C1.0089 12.3787 1.54305 12.6 2.1 12.6H9.975V13.65C9.975 14.7639 9.5325 15.8322 8.74485 16.6198C7.9572 17.4075 6.88891 17.85 5.775 17.85C5.49652 17.85 5.22945 17.9606 5.03254 18.1575C4.83562 18.3545 4.725 18.6215 4.725 18.9C4.725 19.1785 4.83562 19.4455 5.03254 19.6425C5.22945 19.8394 5.49652 19.95 5.775 19.95C7.44533 19.9483 9.04675 19.284 10.2279 18.1029C11.409 16.9218 12.0733 15.3203 12.075 13.65V2.1C12.075 1.54305 11.8537 1.0089 11.4599 0.615076C11.0661 0.221249 10.532 0 9.975 0ZM9.975 10.5H2.1V2.1H9.975V10.5ZM25.2 0H17.325C16.768 0 16.2339 0.221249 15.8401 0.615076C15.4462 1.0089 15.225 1.54305 15.225 2.1V10.5C15.225 11.057 15.4462 11.5911 15.8401 11.9849C16.2339 12.3787 16.768 12.6 17.325 12.6H25.2V13.65C25.2 14.7639 24.7575 15.8322 23.9698 16.6198C23.1822 17.4075 22.1139 17.85 21 17.85C20.7215 17.85 20.4544 17.9606 20.2575 18.1575C20.0606 18.3545 19.95 18.6215 19.95 18.9C19.95 19.1785 20.0606 19.4455 20.2575 19.6425C20.4544 19.8394 20.7215 19.95 21 19.95C22.6703 19.9483 24.2718 19.284 25.4529 18.1029C26.634 16.9218 27.2983 15.3203 27.3 13.65V2.1C27.3 1.54305 27.0787 1.0089 26.6849 0.615076C26.2911 0.221249 25.757 0 25.2 0ZM25.2 10.5H17.325V2.1H25.2V10.5Z" fill="white"/>
</svg>
