<svg width="100" height="100" viewBox="0 0 100 100" fill="none" xmlns="http://www.w3.org/2000/svg">
<path opacity="0.2" d="M34.375 18.75V21.875C34.375 25.1902 33.058 28.3696 30.7138 30.7138C28.3696 33.058 25.1902 34.375 21.875 34.375H12.5V31.25C12.5 27.9348 13.817 24.7554 16.1612 22.4112C18.5054 20.067 21.6848 18.75 25 18.75H34.375Z" fill="#57609B"/>
<path d="M84.375 30.8594V31.25C84.375 35.394 82.7288 39.3683 79.7985 42.2985C76.8683 45.2288 72.894 46.875 68.75 46.875H53.125V78.125H56.25C57.5163 78.1256 58.7529 77.7416 59.796 77.0238C60.8392 76.3061 61.6397 75.2883 62.0916 74.1054C62.5435 72.9226 62.6255 71.6303 62.3266 70.3998C62.0277 69.1693 61.3621 68.0586 60.418 67.2148C59.8316 66.6546 59.486 65.8884 59.4542 65.078C59.4223 64.2677 59.7068 63.4767 60.2474 62.8722C60.788 62.2677 61.5424 61.897 62.3513 61.8385C63.1601 61.78 63.96 62.0382 64.582 62.5586C66.4687 64.2463 67.7985 66.467 68.3955 68.9269C68.9925 71.3868 68.8286 73.97 67.9254 76.3348C67.0223 78.6995 65.4225 80.7343 63.3377 82.17C61.2529 83.6057 58.7813 84.3746 56.25 84.375H53.125V90.625C53.125 91.4538 52.7958 92.2487 52.2097 92.8347C51.6237 93.4208 50.8288 93.75 50 93.75C49.1712 93.75 48.3763 93.4208 47.7903 92.8347C47.2042 92.2487 46.875 91.4538 46.875 90.625V84.375H37.5C36.6712 84.375 35.8763 84.0458 35.2903 83.4597C34.7042 82.8737 34.375 82.0788 34.375 81.25C34.375 80.4212 34.7042 79.6263 35.2903 79.0403C35.8763 78.4542 36.6712 78.125 37.5 78.125H46.875V46.875H37.5C35.8424 46.875 34.2527 47.5335 33.0806 48.7056C31.9085 49.8777 31.25 51.4674 31.25 53.125C31.25 54.7826 31.9085 56.3723 33.0806 57.5444C34.2527 58.7165 35.8424 59.375 37.5 59.375C38.3288 59.375 39.1237 59.7042 39.7097 60.2903C40.2958 60.8763 40.625 61.6712 40.625 62.5C40.625 63.3288 40.2958 64.1237 39.7097 64.7097C39.1237 65.2958 38.3288 65.625 37.5 65.625C34.1848 65.625 31.0054 64.308 28.6612 61.9638C26.317 59.6196 25 56.4402 25 53.125C25 49.8098 26.317 46.6304 28.6612 44.2862C31.0054 41.942 34.1848 40.625 37.5 40.625H46.875V9.375C46.875 8.5462 47.2042 7.75134 47.7903 7.16529C48.3763 6.57924 49.1712 6.25 50 6.25C50.8288 6.25 51.6237 6.57924 52.2097 7.16529C52.7958 7.75134 53.125 8.5462 53.125 9.375V40.625H68.75C71.2364 40.625 73.621 39.6373 75.3791 37.8791C77.1373 36.121 78.125 33.7364 78.125 31.25V30.8594C78.125 28.4766 77.1784 26.1914 75.4935 24.5065C73.8086 22.8216 71.5234 21.875 69.1406 21.875H62.5C61.6712 21.875 60.8763 21.5458 60.2903 20.9597C59.7042 20.3737 59.375 19.5788 59.375 18.75C59.375 17.9212 59.7042 17.1263 60.2903 16.5403C60.8763 15.9542 61.6712 15.625 62.5 15.625H69.1406C73.181 15.625 77.056 17.23 79.913 20.087C82.77 22.944 84.375 26.819 84.375 30.8594ZM21.875 37.5H12.5C11.6712 37.5 10.8763 37.1708 10.2903 36.5847C9.70424 35.9987 9.375 35.2038 9.375 34.375V31.25C9.375 27.106 11.0212 23.1317 13.9515 20.2015C16.8817 17.2712 20.856 15.625 25 15.625H37.5C38.3288 15.625 39.1237 15.9542 39.7097 16.5403C40.2958 17.1263 40.625 17.9212 40.625 18.75C40.625 19.5788 40.2958 20.3737 39.7097 20.9597C39.1237 21.5458 38.3288 21.875 37.5 21.875C37.5 23.9269 37.0958 25.9587 36.3106 27.8544C35.5254 29.7501 34.3745 31.4726 32.9235 32.9235C31.4726 34.3745 29.7501 35.5254 27.8544 36.3106C25.9587 37.0958 23.9269 37.5 21.875 37.5ZM31.25 21.875H25C22.5136 21.875 20.129 22.8627 18.3709 24.6209C16.6127 26.379 15.625 28.7636 15.625 31.25H21.875C24.3614 31.25 26.746 30.2623 28.5041 28.5041C30.2623 26.746 31.25 24.3614 31.25 21.875Z" fill="#57609B"/>
</svg>
