<svg width="100" height="100" viewBox="0 0 100 100" fill="none" xmlns="http://www.w3.org/2000/svg">
<path opacity="0.2" d="M67.8359 67.8355L45.9609 89.7105C45.6705 90.0006 45.3258 90.2306 44.9464 90.3875C44.567 90.5443 44.1605 90.6248 43.75 90.6245H12.5C11.6712 90.6245 10.8763 90.2953 10.2903 89.7092C9.70424 89.1232 9.375 88.3283 9.375 87.4995V56.2495C9.37468 55.839 9.45524 55.4325 9.61207 55.0531C9.76891 54.6738 9.99896 54.329 10.2891 54.0386L32.1641 32.1636C32.4543 31.873 32.7989 31.6425 33.1783 31.4853C33.5577 31.328 33.9643 31.2471 34.375 31.2471C34.7857 31.2471 35.1923 31.328 35.5717 31.4853C35.9511 31.6425 36.2957 31.873 36.5859 32.1636L67.8359 63.4136C68.1265 63.7038 68.357 64.0485 68.5142 64.4278C68.6715 64.8072 68.7525 65.2139 68.7525 65.6245C68.7525 66.0352 68.6715 66.4418 68.5142 66.8212C68.357 67.2006 68.1265 67.5452 67.8359 67.8355Z" fill="#57609B"/>
<path d="M95.9609 22.7888L77.2109 4.03885C76.9206 3.7485 76.5759 3.51819 76.1965 3.36106C75.8172 3.20392 75.4106 3.12305 75 3.12305C74.5894 3.12305 74.1828 3.20392 73.8035 3.36106C73.4241 3.51819 73.0794 3.7485 72.7891 4.03885C72.4987 4.32919 72.2684 4.67388 72.1113 5.05323C71.9541 5.43259 71.8733 5.83918 71.8733 6.24978C71.8733 6.66039 71.9541 7.06698 72.1113 7.44634C72.2684 7.82569 72.4987 8.17038 72.7891 8.46072L79.957 15.6248L52.2227 43.3592L38.793 29.9529C37.621 28.7817 36.0319 28.1238 34.375 28.1238C32.7181 28.1238 31.129 28.7817 29.957 29.9529L8.08203 51.8279C7.49919 52.407 7.03714 53.0961 6.72265 53.8552C6.40816 54.6142 6.24751 55.4282 6.25 56.2498V87.4998C6.25 89.1574 6.90848 90.7471 8.08058 91.9192C9.25268 93.0913 10.8424 93.7498 12.5 93.7498H43.75C44.5711 93.7524 45.3845 93.5918 46.1429 93.2773C46.9013 92.9628 47.5897 92.5006 48.168 91.9178L70.043 70.0428C71.2142 68.8708 71.8721 67.2817 71.8721 65.6248C71.8721 63.9679 71.2142 62.3788 70.043 61.2068L56.6406 47.7888L84.375 20.0545L91.5391 27.2224C91.8294 27.5128 92.1741 27.7431 92.5535 27.9002C92.9328 28.0574 93.3394 28.1382 93.75 28.1382C94.1606 28.1382 94.5672 28.0574 94.9465 27.9002C95.3259 27.7431 95.6706 27.5128 95.9609 27.2224C96.2513 26.9321 96.4816 26.5874 96.6387 26.2081C96.7959 25.8287 96.8767 25.4221 96.8767 25.0115C96.8767 24.6009 96.7959 24.1943 96.6387 23.815C96.4816 23.4356 96.2513 23.0909 95.9609 22.8006V22.7888ZM65.625 65.6248L43.75 87.4998H12.5V56.2498L34.375 34.3748L47.7891 47.7888L32.1641 63.4138C31.8737 63.7042 31.6434 64.0489 31.4863 64.4282C31.3291 64.8076 31.2483 65.2142 31.2483 65.6248C31.2483 66.0354 31.3291 66.442 31.4863 66.8213C31.6434 67.2007 31.8737 67.5454 32.1641 67.8357C32.7504 68.4221 33.5457 68.7515 34.375 68.7515C34.7856 68.7515 35.1922 68.6706 35.5716 68.5135C35.9509 68.3564 36.2956 68.1261 36.5859 67.8357L52.2109 52.2107L65.625 65.6248Z" fill="#57609B"/>
</svg>
