<svg width="22" height="22" viewBox="0 0 22 22" fill="none" xmlns="http://www.w3.org/2000/svg">
<path d="M11 1.40723C11.6614 1.40723 12.2004 1.76401 12.6797 2.18359L13.1416 2.61328C13.3107 2.77507 13.4833 2.94112 13.6523 3.08203C13.8209 3.2226 13.9881 3.34018 14.1455 3.40527C14.2907 3.46568 14.4817 3.49739 14.6904 3.51465C14.8996 3.53194 15.1302 3.53465 15.3555 3.53809C16.1971 3.55102 17.1331 3.56671 17.7832 4.2168C18.4333 4.86688 18.449 5.80287 18.4619 6.64453C18.4653 6.86979 18.4681 7.10038 18.4854 7.30957C18.5026 7.51826 18.5343 7.70926 18.5947 7.85449C18.6598 8.01234 18.7775 8.17921 18.918 8.34766C18.9884 8.43203 19.0654 8.51719 19.1445 8.60254L19.3867 8.8584C19.9586 9.45441 20.5928 10.118 20.5928 11C20.5928 11.6614 20.236 12.2004 19.8164 12.6797L19.3867 13.1416C19.2249 13.3107 19.0589 13.4833 18.918 13.6523C18.7774 13.8209 18.6598 13.9881 18.5947 14.1455C18.5343 14.2907 18.5026 14.4817 18.4854 14.6904C18.4681 14.8996 18.4653 15.1302 18.4619 15.3555C18.449 16.1971 18.4333 17.1331 17.7832 17.7832C17.1331 18.4333 16.1971 18.449 15.3555 18.4619C15.1302 18.4653 14.8996 18.4681 14.6904 18.4854C14.4817 18.5026 14.2907 18.5343 14.1455 18.5947C13.9877 18.6598 13.8208 18.7775 13.6523 18.918C13.568 18.9884 13.4828 19.0654 13.3975 19.1445L13.1416 19.3867C12.5456 19.9586 11.882 20.5928 11 20.5928C10.3386 20.5928 9.79956 20.236 9.32031 19.8164L8.8584 19.3867L8.60254 19.1445C8.51712 19.0654 8.43209 18.9884 8.34766 18.918C8.17906 18.7774 8.01194 18.6598 7.85449 18.5947C7.70926 18.5343 7.51826 18.5026 7.30957 18.4854C7.10038 18.4681 6.86979 18.4653 6.64453 18.4619C5.80287 18.449 4.86688 18.4333 4.2168 17.7832C3.56671 17.1331 3.55102 16.1971 3.53809 15.3555C3.53465 15.1302 3.53194 14.8996 3.51465 14.6904C3.49739 14.4817 3.46568 14.2907 3.40527 14.1455C3.34019 13.9877 3.22255 13.8208 3.08203 13.6523C2.94111 13.4834 2.77508 13.3107 2.61328 13.1416L2.18359 12.6797C1.76392 12.2003 1.40723 11.6615 1.40723 11C1.40723 10.3386 1.76401 9.79956 2.18359 9.32031L2.61328 8.8584C2.77507 8.68931 2.94112 8.51665 3.08203 8.34766C3.2226 8.17905 3.34018 8.01194 3.40527 7.85449C3.46568 7.70926 3.49739 7.51826 3.51465 7.30957C3.53194 7.10038 3.53465 6.86979 3.53809 6.64453C3.55534 5.80255 3.56672 4.86688 4.2168 4.2168C4.86688 3.56671 5.80287 3.55102 6.64453 3.53809C6.86965 3.53466 7.10027 3.53191 7.30957 3.51465C7.51856 3.49739 7.71001 3.46573 7.85449 3.40527C8.01234 3.34019 8.17921 3.22255 8.34766 3.08203C8.43203 3.01164 8.51719 2.93463 8.60254 2.85547L8.8584 2.61328C9.45441 2.04142 10.118 1.40723 11 1.40723ZM11 2.71777C10.8166 2.71777 10.6132 2.82923 10.4062 2.98633C10.1981 3.14439 9.97908 3.35415 9.76465 3.55957C9.33414 3.972 8.89447 4.39395 8.35547 4.61719C7.83798 4.83094 7.24538 4.84002 6.66406 4.84863C6.36206 4.85292 6.05198 4.85823 5.78418 4.89551C5.51773 4.93263 5.28506 5.0025 5.14355 5.14355C5.00199 5.2847 4.93153 5.51821 4.89453 5.78516C4.85736 6.05349 4.85292 6.36379 4.84863 6.66406C4.84002 7.24538 4.83094 7.83798 4.61719 8.35547C4.39394 8.89449 3.97022 9.33764 3.55957 9.76465C3.35496 9.97741 3.1456 10.1966 2.9873 10.4053C2.83 10.6126 2.71777 10.8166 2.71777 11C2.71777 11.1834 2.82923 11.3868 2.98633 11.5938C3.14439 11.8019 3.35415 12.0209 3.55957 12.2354C3.972 12.6659 4.39395 13.1055 4.61719 13.6445C4.83094 14.162 4.84002 14.7546 4.84863 15.3359C4.85292 15.6379 4.85823 15.948 4.89551 16.2158C4.93263 16.4823 5.0025 16.7149 5.14355 16.8564C5.2847 16.998 5.51821 17.0685 5.78516 17.1055C6.05349 17.1426 6.36379 17.1471 6.66406 17.1514C7.24538 17.16 7.83798 17.1691 8.35547 17.3828C8.89449 17.6061 9.33764 18.0298 9.76465 18.4404C9.97741 18.645 10.1966 18.8544 10.4053 19.0127C10.6126 19.17 10.8166 19.2822 11 19.2822C11.1834 19.2822 11.3868 19.1708 11.5938 19.0137C11.8019 18.8556 12.0209 18.6459 12.2354 18.4404C12.6659 18.028 13.1055 17.6061 13.6445 17.3828C14.162 17.1691 14.7546 17.16 15.3359 17.1514C15.6379 17.1471 15.948 17.1418 16.2158 17.1045C16.4823 17.0674 16.7149 16.9975 16.8564 16.8564C16.998 16.7153 17.0685 16.4818 17.1055 16.2148C17.1426 15.9465 17.1471 15.6362 17.1514 15.3359C17.16 14.7546 17.1691 14.162 17.3828 13.6445C17.6061 13.1055 18.028 12.6659 18.4404 12.2354C18.645 12.0226 18.8544 11.8034 19.0127 11.5947C19.17 11.3874 19.2822 11.1834 19.2822 11C19.2822 10.8166 19.1708 10.6132 19.0137 10.4062C18.8556 10.1981 18.6459 9.97908 18.4404 9.76465C18.028 9.33414 17.6061 8.89447 17.3828 8.35547C17.1691 7.83798 17.16 7.24538 17.1514 6.66406C17.1471 6.36206 17.1418 6.05198 17.1045 5.78418C17.0674 5.51773 16.9975 5.28506 16.8564 5.14355C16.7153 5.00199 16.4818 4.93153 16.2148 4.89453C15.9465 4.85736 15.6362 4.85292 15.3359 4.84863C14.7546 4.84002 14.162 4.83094 13.6445 4.61719C13.1055 4.39394 12.6624 3.97022 12.2354 3.55957C12.0226 3.35496 11.8034 3.1456 11.5947 2.9873C11.3874 2.83 11.1834 2.71777 11 2.71777ZM14.4375 8.28125C14.5236 8.28125 14.6089 8.29906 14.6885 8.33203C14.768 8.36501 14.8406 8.41275 14.9014 8.47363C14.9622 8.53444 15.01 8.60705 15.043 8.68652C15.0759 8.76607 15.0938 8.85139 15.0938 8.9375C15.0938 9.02361 15.0759 9.10893 15.043 9.18848C15.01 9.26795 14.9622 9.34056 14.9014 9.40137L10.0889 14.2139C10.0281 14.2747 9.95546 14.3225 9.87598 14.3555C9.79643 14.3884 9.71111 14.4062 9.625 14.4062C9.53889 14.4062 9.45357 14.3884 9.37402 14.3555C9.29455 14.3225 9.22194 14.2747 9.16113 14.2139L7.09863 12.1514C6.97567 12.0284 6.90723 11.8614 6.90723 11.6875C6.90723 11.5136 6.97567 11.3466 7.09863 11.2236C7.22159 11.1007 7.38861 11.0322 7.5625 11.0322C7.73639 11.0322 7.90341 11.1007 8.02637 11.2236L9.60254 12.8008L9.625 12.8232L9.64746 12.8008L13.9736 8.47363C14.0344 8.41275 14.107 8.36501 14.1865 8.33203C14.2661 8.29906 14.3514 8.28125 14.4375 8.28125Z" fill="#BC6100" stroke="#BC6100" stroke-width="0.0644531"/>
</svg>
