<svg width="100" height="100" viewBox="0 0 100 100" fill="none" xmlns="http://www.w3.org/2000/svg">
<path opacity="0.2" d="M84.375 44.168V64.957C84.3768 65.7207 84.0988 66.4585 83.5937 67.0313C79.1797 71.9492 68.3984 81.25 50 81.25C31.6016 81.25 20.8281 71.9492 16.4062 67.0313C15.9011 66.4585 15.6232 65.7207 15.625 64.957V44.168L50 62.5L84.375 44.168Z" fill="#57609B"/>
<path d="M98.3437 34.7426L51.4687 9.74264C51.0166 9.50189 50.5122 9.37598 50 9.37598C49.4878 9.37598 48.9834 9.50189 48.5312 9.74264L1.65625 34.7426C1.15627 35.0091 0.738128 35.4065 0.446562 35.8922C0.154997 36.378 0.000976563 36.9339 0.000976562 37.5005C0.000976562 38.067 0.154997 38.6229 0.446562 39.1087C0.738128 39.5944 1.15627 39.9918 1.65625 40.2583L12.5 46.0434V64.9575C12.4968 66.4925 13.0617 67.9744 14.0859 69.1176C19.2031 74.8169 30.668 84.3755 50 84.3755C56.41 84.4285 62.772 83.2674 68.75 80.9536V93.7505C68.75 94.5793 69.0792 95.3741 69.6653 95.9602C70.2513 96.5462 71.0462 96.8755 71.875 96.8755C72.7038 96.8755 73.4986 96.5462 74.0847 95.9602C74.6708 95.3741 75 94.5793 75 93.7505V77.9341C79.075 75.5817 82.7575 72.607 85.9141 69.1176C86.9383 67.9744 87.5032 66.4925 87.5 64.9575V46.0434L98.3437 40.2583C98.8437 39.9918 99.2619 39.5944 99.5534 39.1087C99.845 38.6229 99.999 38.067 99.999 37.5005C99.999 36.9339 99.845 36.378 99.5534 35.8922C99.2619 35.4065 98.8437 35.0091 98.3437 34.7426ZM50 78.1255C33.0977 78.1255 23.1562 69.8676 18.75 64.9575V49.3755L48.5312 65.2583C48.9834 65.499 49.4878 65.6249 50 65.6249C50.5122 65.6249 51.0166 65.499 51.4687 65.2583L68.75 56.0434V74.145C63.8281 76.4419 57.625 78.1255 50 78.1255ZM81.25 64.9419C79.3767 67.0206 77.2808 68.8872 75 70.5083V52.7075L81.25 49.3755V64.9419ZM73.4375 46.4614L73.3516 46.4106L51.4766 34.7426C50.7467 34.3699 49.8997 34.2987 49.1179 34.5445C48.3361 34.7903 47.6821 35.3333 47.2969 36.0567C46.9116 36.78 46.826 37.6257 47.0583 38.4116C47.2907 39.1975 47.8224 39.8607 48.5391 40.2583L66.7969 50.0005L50 58.9575L9.76562 37.5005L50 16.0434L90.2344 37.5005L73.4375 46.4614Z" fill="#57609B"/>
</svg>
