<svg width="22" height="22" viewBox="0 0 22 22" fill="none" xmlns="http://www.w3.org/2000/svg">
<path d="M9.62988 4.15332C9.90297 4.15335 10.1695 4.23743 10.3936 4.39355C10.6177 4.54992 10.7894 4.77182 10.8838 5.02832L12.5166 9.46387L12.5215 9.47852L12.5352 9.4834L16.958 11.1172L16.9619 11.123L16.9717 11.127C17.228 11.2214 17.4492 11.3921 17.6055 11.6162C17.7617 11.8403 17.8456 12.1067 17.8457 12.3799C17.8457 12.6532 17.7618 12.9204 17.6055 13.1445C17.4492 13.3686 17.228 13.5394 16.9717 13.6338L12.5352 15.2666L12.5215 15.2715L12.5166 15.2861L10.873 19.7217C10.7786 19.9782 10.608 20.2001 10.3838 20.3564C10.1596 20.5128 9.89242 20.5967 9.61914 20.5967C9.34607 20.5966 9.07949 20.5126 8.85547 20.3564C8.63129 20.2001 8.46063 19.9782 8.36621 19.7217L6.7334 15.2861L6.72754 15.2715L6.71387 15.2666L2.27734 13.623C2.02106 13.5286 1.79982 13.3578 1.64355 13.1338C1.48733 12.9097 1.40338 12.6433 1.40332 12.3701C1.40332 12.0968 1.48719 11.8296 1.64355 11.6055C1.79984 11.3814 2.02104 11.2106 2.27734 11.1162L6.71387 9.4834L6.72754 9.47852L6.7334 9.46387L8.37598 5.02832C8.47039 4.77182 8.64106 4.54992 8.86523 4.39355C9.08941 4.23719 9.35656 4.15332 9.62988 4.15332ZM9.59473 5.50195L7.85645 10.2158C7.82371 10.3056 7.77166 10.3875 7.7041 10.4551C7.63652 10.5226 7.5546 10.5747 7.46484 10.6074L2.75098 12.3447L2.66895 12.375L2.75098 12.4053L7.46484 14.1426C7.5546 14.1753 7.63652 14.2274 7.7041 14.2949C7.77166 14.3625 7.82371 14.4444 7.85645 14.5342L9.59473 19.248L9.625 19.3301L9.65527 19.248L11.3955 14.5312C11.4283 14.4423 11.4808 14.361 11.5479 14.2939C11.6148 14.2271 11.6954 14.1753 11.7842 14.1426L16.498 12.4053L16.5801 12.375L16.498 12.3447L11.7803 10.6035C11.6915 10.5707 11.6109 10.5191 11.5439 10.4521C11.477 10.3852 11.4254 10.3046 11.3926 10.2158L9.65527 5.50195L9.625 5.41992L9.59473 5.50195ZM19.25 5.53223C19.4236 5.53234 19.5901 5.60182 19.7129 5.72461C19.8356 5.84748 19.9053 6.01381 19.9053 6.1875V6.90723H20.625C20.7986 6.90734 20.9651 6.97682 21.0879 7.09961C21.2106 7.22248 21.2803 7.38881 21.2803 7.5625C21.2803 7.73619 21.2106 7.90252 21.0879 8.02539C20.9651 8.14818 20.7986 8.21766 20.625 8.21777H19.9053V8.9375C19.9053 9.11119 19.8356 9.27752 19.7129 9.40039C19.5901 9.52318 19.4236 9.59266 19.25 9.59277C19.0762 9.59277 18.909 9.52328 18.7861 9.40039C18.6634 9.27753 18.5947 9.11116 18.5947 8.9375V8.21777H17.875C17.7012 8.21777 17.534 8.14828 17.4111 8.02539C17.2884 7.90253 17.2197 7.73616 17.2197 7.5625C17.2197 7.38884 17.2884 7.22247 17.4111 7.09961C17.534 6.97672 17.7012 6.90723 17.875 6.90723H18.5947V6.1875C18.5947 6.01384 18.6634 5.84747 18.7861 5.72461C18.909 5.60172 19.0762 5.53223 19.25 5.53223ZM15.125 0.719727C15.2986 0.719836 15.4651 0.789319 15.5879 0.912109C15.7106 1.03498 15.7803 1.20131 15.7803 1.375V2.78223H17.1875C17.3611 2.78234 17.5276 2.85182 17.6504 2.97461C17.7731 3.09748 17.8428 3.26381 17.8428 3.4375C17.8428 3.61119 17.7731 3.77752 17.6504 3.90039C17.5276 4.02318 17.3611 4.09266 17.1875 4.09277H15.7803V5.5C15.7803 5.67369 15.7106 5.84002 15.5879 5.96289C15.4651 6.08568 15.2986 6.15516 15.125 6.15527C14.9512 6.15527 14.784 6.08578 14.6611 5.96289C14.5384 5.84003 14.4697 5.67366 14.4697 5.5V4.09277H13.0625C12.8887 4.09277 12.7215 4.02328 12.5986 3.90039C12.4759 3.77753 12.4072 3.61116 12.4072 3.4375C12.4072 3.26384 12.4759 3.09747 12.5986 2.97461C12.7215 2.85172 12.8887 2.78223 13.0625 2.78223H14.4697V1.375C14.4697 1.20134 14.5384 1.03497 14.6611 0.912109C14.784 0.789222 14.9512 0.719727 15.125 0.719727Z" fill="#BC6100" stroke="#BC6100" stroke-width="0.0644531"/>
</svg>
