<svg width="171" height="171" viewBox="0 0 171 171" fill="none" xmlns="http://www.w3.org/2000/svg">
<path d="M62.2112 169.922L46.6899 164.092C43.1107 162.748 41.2986 158.756 42.6429 155.176L56.5337 118.194C57.0381 116.851 55.6713 115.565 54.3615 116.15L18.1768 132.299C14.6984 133.877 10.5948 132.336 9.01589 128.858L2.16344 113.762C1.3993 112.078 1.33411 110.195 1.98855 108.462C2.63862 106.732 3.92753 105.357 5.60977 104.596L41.5766 88.2692C42.884 87.6758 42.8266 85.8008 41.4866 85.2885L4.48895 71.1256C0.916145 69.7837 -0.899927 65.7828 0.441991 62.2101L6.27169 46.689C7.616 43.1099 11.6081 41.2979 15.1873 42.6422L52.1677 56.5321C53.5107 57.0365 54.7967 55.6697 54.2114 54.36L38.0655 18.1805C37.3022 16.5047 37.237 14.6213 37.887 12.8906C38.5351 11.1555 39.824 9.78073 41.5075 9.01663L56.6036 2.16448C60.0842 0.58466 64.1846 2.12479 65.7645 5.6053L82.0953 41.5822C82.6887 42.8895 84.5637 42.8321 85.0761 41.4921L99.241 4.4889C100.583 0.916165 104.584 -0.899827 108.157 0.442117L123.678 6.27193C127.257 7.61626 129.069 11.6083 127.725 15.1874L113.835 52.1672C113.331 53.5101 114.698 54.7961 116.008 54.2108L152.188 38.0641C155.666 36.4852 159.77 38.0266 161.349 41.5049L168.201 56.6009C168.965 58.2843 169.031 60.1677 168.376 61.9004C167.726 63.6311 166.437 65.0059 164.755 65.7668L128.788 82.0935C127.481 82.6869 127.538 84.5619 128.878 85.0742L165.876 99.2371C169.449 100.579 171.265 104.58 169.923 108.153L164.093 123.674C162.749 127.253 158.757 129.065 155.177 127.72L118.197 113.831C116.854 113.326 115.568 114.693 116.153 116.003L132.301 152.183C133.064 153.859 133.129 155.742 132.479 157.473C131.831 159.208 130.542 160.583 128.859 161.347L113.763 168.199C110.282 169.779 106.182 168.239 104.602 164.758L88.273 128.786C87.6796 127.478 85.8046 127.536 85.2922 128.876L71.1284 165.876C69.7865 169.448 65.7841 171.264 62.2112 169.922Z" fill="#97A3E3"/>
</svg>
