<svg width="48" height="48" viewBox="0 0 48 48" fill="none" xmlns="http://www.w3.org/2000/svg">
<path opacity="0.2" d="M33.0002 21L13.939 40.0613C13.6577 40.3423 13.2763 40.5002 12.8787 40.5002C12.481 40.5002 12.0996 40.3423 11.8184 40.0613L7.93899 36.1875C7.6579 35.9062 7.5 35.5248 7.5 35.1272C7.5 34.7295 7.6579 34.3482 7.93899 34.0669L27.0002 15L33.0002 21Z" fill="#272D55"/>
<path d="M46.5004 28.5C46.5004 28.8978 46.3424 29.2794 46.0611 29.5607C45.7798 29.842 45.3983 30 45.0004 30H42.0004V33C42.0004 33.3978 41.8424 33.7794 41.5611 34.0607C41.2798 34.342 40.8983 34.5 40.5004 34.5C40.1026 34.5 39.7211 34.342 39.4398 34.0607C39.1585 33.7794 39.0004 33.3978 39.0004 33V30H36.0004C35.6026 30 35.2211 29.842 34.9398 29.5607C34.6585 29.2794 34.5004 28.8978 34.5004 28.5C34.5004 28.1022 34.6585 27.7206 34.9398 27.4393C35.2211 27.158 35.6026 27 36.0004 27H39.0004V24C39.0004 23.6022 39.1585 23.2206 39.4398 22.9393C39.7211 22.658 40.1026 22.5 40.5004 22.5C40.8983 22.5 41.2798 22.658 41.5611 22.9393C41.8424 23.2206 42.0004 23.6022 42.0004 24V27H45.0004C45.3983 27 45.7798 27.158 46.0611 27.4393C46.3424 27.7206 46.5004 28.1022 46.5004 28.5ZM10.5004 13.5H13.5004V16.5C13.5004 16.8978 13.6585 17.2794 13.9398 17.5607C14.2211 17.842 14.6026 18 15.0004 18C15.3983 18 15.7798 17.842 16.0611 17.5607C16.3424 17.2794 16.5004 16.8978 16.5004 16.5V13.5H19.5004C19.8983 13.5 20.2798 13.342 20.5611 13.0607C20.8424 12.7794 21.0004 12.3978 21.0004 12C21.0004 11.6022 20.8424 11.2206 20.5611 10.9393C20.2798 10.658 19.8983 10.5 19.5004 10.5H16.5004V7.5C16.5004 7.10218 16.3424 6.72064 16.0611 6.43934C15.7798 6.15804 15.3983 6 15.0004 6C14.6026 6 14.2211 6.15804 13.9398 6.43934C13.6585 6.72064 13.5004 7.10218 13.5004 7.5V10.5H10.5004C10.1026 10.5 9.72109 10.658 9.43979 10.9393C9.15848 11.2206 9.00045 11.6022 9.00045 12C9.00045 12.3978 9.15848 12.7794 9.43979 13.0607C9.72109 13.342 10.1026 13.5 10.5004 13.5ZM34.5004 36H33.0004V34.5C33.0004 34.1022 32.8424 33.7206 32.5611 33.4393C32.2798 33.158 31.8983 33 31.5004 33C31.1026 33 30.7211 33.158 30.4398 33.4393C30.1585 33.7206 30.0004 34.1022 30.0004 34.5V36H28.5004C28.1026 36 27.7211 36.158 27.4398 36.4393C27.1585 36.7206 27.0004 37.1022 27.0004 37.5C27.0004 37.8978 27.1585 38.2794 27.4398 38.5607C27.7211 38.842 28.1026 39 28.5004 39H30.0004V40.5C30.0004 40.8978 30.1585 41.2794 30.4398 41.5607C30.7211 41.842 31.1026 42 31.5004 42C31.8983 42 32.2798 41.842 32.5611 41.5607C32.8424 41.2794 33.0004 40.8978 33.0004 40.5V39H34.5004C34.8983 39 35.2798 38.842 35.5611 38.5607C35.8424 38.2794 36.0004 37.8978 36.0004 37.5C36.0004 37.1022 35.8424 36.7206 35.5611 36.4393C35.2798 36.158 34.8983 36 34.5004 36ZM41.1211 15L15.0004 41.1206C14.4379 41.6828 13.6751 41.9986 12.8798 41.9986C12.0845 41.9986 11.3217 41.6828 10.7592 41.1206L6.87795 37.2431C6.5993 36.9645 6.37826 36.6338 6.22745 36.2698C6.07664 35.9058 5.99902 35.5156 5.99902 35.1216C5.99902 34.7275 6.07664 34.3374 6.22745 33.9734C6.37826 33.6093 6.5993 33.2786 6.87795 33L33.0004 6.87937C33.279 6.60073 33.6098 6.37969 33.9738 6.22888C34.3378 6.07807 34.728 6.00045 35.122 6.00045C35.516 6.00045 35.9062 6.07807 36.2702 6.22888C36.6342 6.37969 36.965 6.60073 37.2436 6.87937L41.1211 10.7569C41.3997 11.0355 41.6208 11.3662 41.7716 11.7302C41.9224 12.0943 42 12.4844 42 12.8784C42 13.2725 41.9224 13.6626 41.7716 14.0266C41.6208 14.3907 41.3997 14.7214 41.1211 15ZM30.8779 21L27.0004 17.1206L9.00045 35.1206L12.8779 39L30.8779 21ZM39.0004 12.8794L35.1211 9L29.1211 15L33.0004 18.8794L39.0004 12.8794Z" fill="#272D55"/>
</svg>
