<svg width="48" height="48" viewBox="0 0 48 48" fill="none" xmlns="http://www.w3.org/2000/svg">
<g clip-path="url(#clip0_40002138_2855)">
<path opacity="0.2" d="M39 13.5V34.5H9V13.5H39Z" fill="#272D55"/>
<path d="M16.5 27V24C16.5 23.6022 16.658 23.2206 16.9393 22.9393C17.2206 22.658 17.6022 22.5 18 22.5C18.3978 22.5 18.7794 22.658 19.0607 22.9393C19.342 23.2206 19.5 23.6022 19.5 24V27C19.5 27.3978 19.342 27.7794 19.0607 28.0607C18.7794 28.342 18.3978 28.5 18 28.5C17.6022 28.5 17.2206 28.342 16.9393 28.0607C16.658 27.7794 16.5 27.3978 16.5 27ZM24 28.5C24.3978 28.5 24.7794 28.342 25.0607 28.0607C25.342 27.7794 25.5 27.3978 25.5 27V22.5C25.5 22.1022 25.342 21.7206 25.0607 21.4393C24.7794 21.158 24.3978 21 24 21C23.6022 21 23.2206 21.158 22.9393 21.4393C22.658 21.7206 22.5 22.1022 22.5 22.5V27C22.5 27.3978 22.658 27.7794 22.9393 28.0607C23.2206 28.342 23.6022 28.5 24 28.5ZM30 28.5C30.3978 28.5 30.7794 28.342 31.0607 28.0607C31.342 27.7794 31.5 27.3978 31.5 27V21C31.5 20.6022 31.342 20.2206 31.0607 19.9393C30.7794 19.658 30.3978 19.5 30 19.5C29.6022 19.5 29.2206 19.658 28.9393 19.9393C28.658 20.2206 28.5 20.6022 28.5 21V27C28.5 27.3978 28.658 27.7794 28.9393 28.0607C29.2206 28.342 29.6022 28.5 30 28.5ZM40.5 15V33H42C42.3978 33 42.7794 33.158 43.0607 33.4393C43.342 33.7206 43.5 34.1022 43.5 34.5C43.5 34.8978 43.342 35.2794 43.0607 35.5607C42.7794 35.842 42.3978 36 42 36H25.5V39.2587C26.5008 39.6126 27.3443 40.3089 27.8814 41.2245C28.4186 42.1401 28.6147 43.2161 28.4352 44.2623C28.2557 45.3086 27.7121 46.2577 26.9005 46.9419C26.0889 47.6261 25.0615 48.0014 24 48.0014C22.9385 48.0014 21.9111 47.6261 21.0995 46.9419C20.2879 46.2577 19.7443 45.3086 19.5648 44.2623C19.3853 43.2161 19.5814 42.1401 20.1186 41.2245C20.6557 40.3089 21.4992 39.6126 22.5 39.2587V36H6C5.60218 36 5.22064 35.842 4.93934 35.5607C4.65804 35.2794 4.5 34.8978 4.5 34.5C4.5 34.1022 4.65804 33.7206 4.93934 33.4393C5.22064 33.158 5.60218 33 6 33H7.5V15C6.70435 15 5.94129 14.6839 5.37868 14.1213C4.81607 13.5587 4.5 12.7956 4.5 12V9C4.5 8.20435 4.81607 7.44129 5.37868 6.87868C5.94129 6.31607 6.70435 6 7.5 6H40.5C41.2957 6 42.0587 6.31607 42.6213 6.87868C43.1839 7.44129 43.5 8.20435 43.5 9V12C43.5 12.7956 43.1839 13.5587 42.6213 14.1213C42.0587 14.6839 41.2957 15 40.5 15ZM25.5 43.5C25.5 43.2033 25.412 42.9133 25.2472 42.6666C25.0824 42.42 24.8481 42.2277 24.574 42.1142C24.2999 42.0006 23.9983 41.9709 23.7074 42.0288C23.4164 42.0867 23.1491 42.2296 22.9393 42.4393C22.7296 42.6491 22.5867 42.9164 22.5288 43.2074C22.4709 43.4983 22.5006 43.7999 22.6142 44.074C22.7277 44.3481 22.92 44.5824 23.1666 44.7472C23.4133 44.912 23.7033 45 24 45C24.3978 45 24.7794 44.842 25.0607 44.5607C25.342 44.2794 25.5 43.8978 25.5 43.5ZM7.5 12H40.5V9H7.5V12ZM37.5 15H10.5V33H37.5V15Z" fill="#272D55"/>
</g>
<defs>
<clipPath id="clip0_40002138_2855">
<rect width="48" height="48" fill="white"/>
</clipPath>
</defs>
</svg>
