<svg width="100" height="100" viewBox="0 0 100 100" fill="none" xmlns="http://www.w3.org/2000/svg">
<path opacity="0.2" d="M96.875 43.75V65.625H43.75V31.25H84.375C87.6902 31.25 90.8696 32.567 93.2138 34.9112C95.558 37.2554 96.875 40.4348 96.875 43.75Z" fill="#57609B"/>
<path d="M84.375 28.125H12.5V18.75C12.5 17.9212 12.1708 17.1263 11.5847 16.5403C10.9987 15.9542 10.2038 15.625 9.375 15.625C8.5462 15.625 7.75134 15.9542 7.16529 16.5403C6.57924 17.1263 6.25 17.9212 6.25 18.75V81.25C6.25 82.0788 6.57924 82.8737 7.16529 83.4597C7.75134 84.0458 8.5462 84.375 9.375 84.375C10.2038 84.375 10.9987 84.0458 11.5847 83.4597C12.1708 82.8737 12.5 82.0788 12.5 81.25V68.75H93.75V81.25C93.75 82.0788 94.0792 82.8737 94.6653 83.4597C95.2513 84.0458 96.0462 84.375 96.875 84.375C97.7038 84.375 98.4987 84.0458 99.0847 83.4597C99.6708 82.8737 100 82.0788 100 81.25V43.75C100 39.606 98.3538 35.6317 95.4235 32.7015C92.4933 29.7712 88.519 28.125 84.375 28.125ZM12.5 34.375H40.625V62.5H12.5V34.375ZM46.875 62.5V34.375H84.375C86.8614 34.375 89.246 35.3627 91.0041 37.1209C92.7623 38.879 93.75 41.2636 93.75 43.75V62.5H46.875Z" fill="#57609B"/>
</svg>
