<svg width="22" height="22" viewBox="0 0 22 22" fill="none" xmlns="http://www.w3.org/2000/svg">
<path d="M6.1875 2.78223H15.8125C15.9056 2.78245 15.9983 2.80226 16.083 2.84082C16.1677 2.87938 16.2434 2.93587 16.3047 3.00586L21.1172 8.50586C21.2245 8.62758 21.2822 8.78498 21.2803 8.94727C21.2788 9.06908 21.2439 9.18734 21.1797 9.28906L21.1064 9.38477L11.4814 19.6973C11.4202 19.763 11.3461 19.8157 11.2637 19.8516C11.1812 19.8874 11.0918 19.9053 11.002 19.9053C10.9123 19.9053 10.8235 19.8873 10.7412 19.8516C10.6589 19.8158 10.5847 19.7629 10.5234 19.6973H10.5225L0.897461 9.38477C0.786827 9.26614 0.724317 9.11043 0.72168 8.94824C0.719108 8.78591 0.776851 8.62802 0.883789 8.50586L5.69629 3.00586C5.7576 2.93583 5.83325 2.87938 5.91797 2.84082C5.96033 2.82155 6.00459 2.80674 6.0498 2.79688L6.1875 2.78223ZM7.86133 9.63672L10.9707 17.4111L11 17.4854L11.0303 17.4111L14.1396 9.63672L14.1572 9.59277H7.84375L7.86133 9.63672ZM2.93359 9.64746L8.97559 16.1211L9.0293 16.0869L6.43945 9.61328L6.43164 9.59277H2.88379L2.93359 9.64746ZM15.5615 9.61328L12.9717 16.0869L13.0254 16.1211L19.0664 9.64746L19.1172 9.59277H15.5693L15.5615 9.61328ZM6.47559 4.10352L2.86621 8.22852L2.81934 8.28223H6.54785L6.55762 8.26953L9.65137 4.14453L9.68945 4.09277H6.48535L6.47559 4.10352ZM10.9746 4.56348L8.22461 8.23047L8.18555 8.28223H13.8145L13.7764 8.23047L11.0264 4.56348L11 4.5293L10.9746 4.56348ZM12.3496 4.14453L15.4434 8.26953L15.4531 8.28223H19.1816L19.1348 8.22852L15.5254 4.10352L15.5156 4.09277H12.3105L12.3496 4.14453Z" fill="#BC6100" stroke="#BC6100" stroke-width="0.0644531"/>
</svg>
