<svg width="100" height="100" viewBox="0 0 100 100" fill="none" xmlns="http://www.w3.org/2000/svg">
<path opacity="0.2" d="M90.625 34.375L84.7383 78.5391C84.638 79.2895 84.2686 79.978 83.6989 80.4766C83.1291 80.9752 82.3977 81.25 81.6406 81.25H18.3594C17.6023 81.25 16.8709 80.9752 16.3011 80.4766C15.7314 79.978 15.362 79.2895 15.2617 78.5391L9.375 34.375H90.625Z" fill="#57609B"/>
<path d="M53.125 46.8754V68.7504C53.125 69.5792 52.7958 70.3741 52.2097 70.9601C51.6237 71.5462 50.8288 71.8754 50 71.8754C49.1712 71.8754 48.3764 71.5462 47.7903 70.9601C47.2043 70.3741 46.875 69.5792 46.875 68.7504V46.8754C46.875 46.0466 47.2043 45.2517 47.7903 44.6657C48.3764 44.0796 49.1712 43.7504 50 43.7504C50.8288 43.7504 51.6237 44.0796 52.2097 44.6657C52.7958 45.2517 53.125 46.0466 53.125 46.8754ZM67.5156 46.5629L65.3281 68.4379C65.2849 68.8474 65.3231 69.2615 65.4404 69.6563C65.5578 70.051 65.752 70.4187 66.0119 70.7382C66.2718 71.0576 66.5923 71.3225 66.9549 71.5177C67.3176 71.7129 67.7152 71.8344 68.125 71.8754C68.2304 71.8812 68.336 71.8812 68.4414 71.8754C69.2155 71.8744 69.9616 71.5863 70.5353 71.0667C71.109 70.5471 71.4695 69.833 71.5469 69.0629L73.7344 47.1879C73.8173 46.3632 73.5692 45.5394 73.0447 44.8977C72.5201 44.256 71.7622 43.8489 70.9375 43.766C70.1129 43.6831 69.2891 43.9312 68.6473 44.4558C68.0056 44.9803 67.5985 45.7382 67.5156 46.5629ZM32.4844 46.5629C32.4015 45.7382 31.9944 44.9803 31.3527 44.4558C30.711 43.9312 29.8872 43.6831 29.0625 43.766C28.2379 43.8489 27.4799 44.256 26.9554 44.8977C26.4309 45.5394 26.1828 46.3632 26.2656 47.1879L28.4531 69.0629C28.5309 69.8364 28.8941 70.5532 29.472 71.0732C30.0498 71.5933 30.8008 71.8793 31.5781 71.8754C31.6835 71.8812 31.7892 71.8812 31.8946 71.8754C32.3029 71.8344 32.6991 71.7133 33.0607 71.5191C33.4222 71.325 33.742 71.0615 34.0017 70.7437C34.2614 70.426 34.456 70.0602 34.5743 69.6672C34.6927 69.2743 34.7325 68.8618 34.6914 68.4535L32.4844 46.5629ZM93.7227 34.7895L87.836 78.9535C87.6306 80.4524 86.8905 81.8265 85.7521 82.8229C84.6136 83.8192 83.1535 84.3706 81.6406 84.3754H18.3594C16.8466 84.3706 15.3864 83.8192 14.248 82.8229C13.1095 81.8265 12.3694 80.4524 12.1641 78.9535L6.27737 34.7895C6.21836 34.348 6.25439 33.899 6.38304 33.4727C6.5117 33.0463 6.73001 32.6523 7.02334 32.3172C7.31667 31.9821 7.67824 31.7135 8.08383 31.5295C8.48942 31.3455 8.92966 31.2504 9.37503 31.2504H26.7071L47.6563 7.3168C47.9495 6.98427 48.3102 6.71796 48.7143 6.53555C49.1184 6.35313 49.5567 6.25879 50 6.25879C50.4434 6.25879 50.8817 6.35313 51.2858 6.53555C51.6899 6.71796 52.0505 6.98427 52.3438 7.3168L73.293 31.2504H90.625C91.0704 31.2504 91.5106 31.3455 91.9162 31.5295C92.3218 31.7135 92.6834 31.9821 92.9767 32.3172C93.27 32.6523 93.4883 33.0463 93.617 33.4727C93.7457 33.899 93.7817 34.348 93.7227 34.7895ZM35.0117 31.2504H64.9883L50 14.1215L35.0117 31.2504ZM87.0547 37.5004H12.9453L18.3594 78.1254H81.6406L87.0547 37.5004Z" fill="#57609B"/>
</svg>
