<svg width="100" height="100" viewBox="0 0 100 100" fill="none" xmlns="http://www.w3.org/2000/svg">
<path opacity="0.2" d="M90.625 37.5H9.375L50 12.5L90.625 37.5Z" fill="#57609B"/>
<path d="M9.375 40.625H18.75V65.625H12.5C11.6712 65.625 10.8763 65.9542 10.2903 66.5403C9.70424 67.1264 9.375 67.9212 9.375 68.75C9.375 69.5788 9.70424 70.3737 10.2903 70.9597C10.8763 71.5458 11.6712 71.875 12.5 71.875H87.5C88.3288 71.875 89.1237 71.5458 89.7097 70.9597C90.2958 70.3737 90.625 69.5788 90.625 68.75C90.625 67.9212 90.2958 67.1264 89.7097 66.5403C89.1237 65.9542 88.3288 65.625 87.5 65.625H81.25V40.625H90.625C91.3049 40.6243 91.9661 40.4019 92.5082 39.9915C93.0503 39.581 93.4437 39.005 93.6288 38.3507C93.8139 37.6965 93.7806 36.9997 93.5339 36.3661C93.2871 35.7325 92.8405 35.1967 92.2617 34.8399L51.6367 9.83985C51.1444 9.53719 50.5779 9.37695 50 9.37695C49.4221 9.37695 48.8556 9.53719 48.3633 9.83985L7.73828 34.8399C7.15948 35.1967 6.71285 35.7325 6.46613 36.3661C6.21942 36.9997 6.18608 37.6965 6.37118 38.3507C6.55628 39.005 6.94972 39.581 7.49181 39.9915C8.0339 40.4019 8.69506 40.6243 9.375 40.625ZM25 40.625H37.5V65.625H25V40.625ZM56.25 40.625V65.625H43.75V40.625H56.25ZM75 65.625H62.5V40.625H75V65.625ZM50 16.168L79.5859 34.375H20.4141L50 16.168ZM96.875 81.25C96.875 82.0788 96.5458 82.8737 95.9597 83.4597C95.3737 84.0458 94.5788 84.375 93.75 84.375H6.25C5.4212 84.375 4.62634 84.0458 4.04029 83.4597C3.45424 82.8737 3.125 82.0788 3.125 81.25C3.125 80.4212 3.45424 79.6264 4.04029 79.0403C4.62634 78.4542 5.4212 78.125 6.25 78.125H93.75C94.5788 78.125 95.3737 78.4542 95.9597 79.0403C96.5458 79.6264 96.875 80.4212 96.875 81.25Z" fill="#57609B"/>
</svg>
