<svg width="12" height="10" viewBox="0 0 12 10" fill="none" xmlns="http://www.w3.org/2000/svg">
<path d="M11.8538 5.35403L7.35375 9.85403C7.25993 9.94785 7.13268 10.0006 7 10.0006C6.86732 10.0006 6.74007 9.94785 6.64625 9.85403C6.55243 9.76021 6.49972 9.63296 6.49972 9.50028C6.49972 9.3676 6.55243 9.24035 6.64625 9.14653L10.2931 5.50028H0.5C0.367392 5.50028 0.240215 5.4476 0.146447 5.35383C0.0526785 5.26006 0 5.13289 0 5.00028C0 4.86767 0.0526785 4.74049 0.146447 4.64672C0.240215 4.55296 0.367392 4.50028 0.5 4.50028H10.2931L6.64625 0.854028C6.55243 0.760208 6.49972 0.63296 6.49972 0.500278C6.49972 0.367596 6.55243 0.240348 6.64625 0.146528C6.74007 0.0527077 6.86732 0 7 0C7.13268 0 7.25993 0.0527077 7.35375 0.146528L11.8538 4.64653C11.9002 4.69296 11.9371 4.74811 11.9623 4.80881C11.9874 4.86951 12.0004 4.93457 12.0004 5.00028C12.0004 5.06599 11.9874 5.13105 11.9623 5.19175C11.9371 5.25245 11.9002 5.30759 11.8538 5.35403Z" fill="white"/>
</svg>
