<svg width="2613" height="1148" viewBox="0 0 2613 1148" fill="none" xmlns="http://www.w3.org/2000/svg">
<path d="M1136.23 248.494L1182.59 248.53C1201.35 266.52 1367.12 447.122 1372.45 449.037C1388.9 434.68 1420.86 398.72 1436.72 381.905L1562.62 248.49H1609.83V732.51L1538.16 732.506V475.5V376.668C1533.16 384.87 1377.71 550.263 1372.36 553.674C1364.03 550.032 1323.05 499.734 1313.38 491.904C1297.78 479.283 1217.56 383.827 1207.08 379.597C1206.43 383.293 1206.85 404.005 1206.85 408.976L1206.86 476.857L1206.83 732.51L1135.16 732.506C1135.16 685.664 1133.59 253.383 1136.23 248.494Z" fill="white"/>
<path d="M2295.17 304.169H2362.51V510.25C2372.42 501.072 2388.38 488.624 2399.06 479.754C2422.93 460.095 2446.69 440.3 2470.33 420.371C2478.81 413.272 2499.87 397.005 2506.51 390H2612.72C2590.32 407.55 2407.89 557.267 2406.31 562.026C2414.82 567.655 2440.18 589.322 2448.83 596.741C2463.64 609.436 2486.01 626.202 2499.59 639.081C2509.13 645.628 2527.09 661.521 2536.93 669.659L2613 732.51L2548.08 732.628C2538.95 732.658 2520.66 733.199 2512.11 732.236L2511.35 732.147C2504.49 731.375 2475.37 705.57 2468.51 699.902L2402.8 645.7C2390.07 635.211 2375.67 622.78 2362.51 613.133V732.51H2295.17V304.169Z" fill="white"/>
<path d="M1814.73 391.49C1816.56 391.459 1818.4 391.443 1820.24 391.442C1867.11 391.43 1910.07 408.352 1943.27 441.755C1965.18 463.911 1980.71 491.574 1988.21 521.822C1994.51 547.441 1992.88 590.505 1992.88 618.616L1992.83 732.51H1925.83L1925.88 614.543C1925.9 594.886 1927.09 559.271 1923.67 541.79C1920.69 526.144 1914.06 511.42 1904.33 498.814C1866.36 449.783 1802.82 446.731 1755.21 483.852C1733 504.412 1720.24 530.116 1719.62 560.635C1719.25 588.065 1729.78 614.521 1748.9 634.192C1769.08 655.057 1794.05 664.949 1822.83 665.516V732.528C1782.23 731.985 1745.88 719.86 1714.33 693.803C1679.47 665.16 1657.58 623.724 1653.55 578.79C1648.97 533.208 1662.97 487.707 1692.39 452.586C1724.68 413.856 1765.43 395.986 1814.73 391.49Z" fill="white"/>
<path d="M2168.75 393.45C2190.48 391.813 2229.77 392.973 2252.84 393V460.17L2205.96 460.106C2173.02 460.062 2152.09 459.458 2126.6 484.123C2095.48 514.25 2102.44 558.649 2102.45 598.564L2102.51 715.5V733.999H2035.49L2035.48 603.959C2035.45 577.216 2033.79 535.931 2038.84 510.905C2042.83 491.14 2050.91 472.427 2062.55 455.969C2089.57 417.643 2123.95 401.134 2168.75 393.45Z" fill="white"/>
<path d="M1576.83 832.164H1616.83L1616.85 939.076C1616.84 953.066 1615.84 984.882 1618.27 997.023C1620.4 1007.89 1625.4 1017.98 1632.75 1026.25C1643.58 1038.27 1658.73 1045.51 1674.89 1046.4C1691.17 1047.18 1707.1 1041.44 1719.14 1030.44C1753.68 999.207 1741.52 941.412 1696.61 926.848C1690.21 924.769 1684.46 924.594 1677.83 924.421V884.475C1701.21 884.24 1719.35 890.167 1738.41 903.959C1738.5 904.107 1745.61 909.542 1746.93 910.842C1767.58 931.176 1778.97 956.01 1778.88 985.007C1778.79 1012.74 1769.57 1036.91 1749.82 1056.73C1730.8 1075.67 1705.11 1086.37 1678.28 1086.55C1649.97 1086.6 1626.17 1075.74 1606.03 1056.08C1571.15 1022.03 1576.76 977.759 1576.76 932.804L1576.83 832.164Z" fill="#EF7A06"/>
<path d="M1875.74 879.351C1913.99 874.578 1961.19 897.746 1970.4 937.573C1971.25 941.232 1971.19 948.222 1971.28 952.167C1959.08 952.04 1944.52 953.516 1932.55 951.175C1932.53 951.173 1929.44 942.894 1929.02 942.034C1926.85 937.701 1923.87 933.818 1920.26 930.593C1905.01 916.884 1874.44 914.29 1857.97 926.781C1817.19 957.714 1873.07 966.456 1896.3 969.185C1929.63 973.344 1972.28 983.538 1971.23 1025.52C1970.18 1067.25 1936.67 1088.98 1898.25 1093.94C1895.96 1094.69 1891.17 1094.88 1888.79 1094.82C1846.56 1093.65 1803.68 1067.61 1804.15 1020.83C1813.03 1020.87 1835.79 1019.85 1842.98 1021.64C1849.51 1042.12 1854.71 1046.42 1876.31 1053.47C1888.23 1058.24 1894.37 1053.41 1904.5 1051.99C1921.89 1049.55 1946.02 1024.51 1919.12 1014.6C1884.17 1001.71 1835.03 1010.01 1811.35 974.839C1801.55 960.28 1801.95 932.767 1811.95 918.03C1827.84 892.612 1847.75 884.985 1875.74 879.351Z" fill="#EF7A06"/>
<path d="M1445.75 884.498C1446.82 884.466 1447.9 884.448 1448.98 884.444C1487.88 884.308 1518.71 901.463 1538.79 935.103C1554.77 961.881 1552.27 991.151 1552.25 1021.04L1552.17 1086.49H1512.17L1512.31 1016.46C1512.33 1005.17 1512.94 985.291 1511.04 974.989C1509.37 965.536 1505.6 956.576 1500.02 948.768C1490.74 935.939 1476.7 927.368 1461.05 924.971C1440.39 921.668 1426.92 927.383 1410.82 938.868C1387.88 962.306 1381.89 994.407 1402.66 1022.58C1414.97 1039.28 1431.31 1044.54 1451.17 1047.22V1086.93C1425.04 1085.03 1404.31 1078.89 1384.19 1061.29C1364.57 1044.24 1352.5 1020.11 1350.64 994.189C1346.91 935.667 1386.71 887.989 1445.75 884.498Z" fill="#EF7A06"/>
<path d="M1127.24 799.491L1169.49 799.49L1169.44 911.443C1169.41 931.566 1168.1 959.883 1171.49 979.157C1173.84 992.462 1183.9 1010.47 1193.76 1019.98C1219.82 1045.1 1243.49 1043.97 1276.61 1043.93L1324.84 1043.83V1086.49C1303.12 1086.54 1261.52 1087.84 1241.13 1085.9C1207.63 1082.81 1176.77 1066.39 1155.51 1040.32C1142.31 1024.16 1133.18 1005.07 1128.89 984.651C1126.15 972.1 1126.79 947.485 1126.87 934.394L1126.84 880.116C1126.79 860.985 1125.51 816.198 1127.24 799.491Z" fill="#EF7A06"/>
<path d="M0 616.607C2.67715 609.231 4.48874 572.762 6.35128 561.344C51.6013 283.958 342.009 111.341 607.292 205.046C620.808 209.82 639.645 216.308 652.053 223.75C671.613 230.834 684.566 241.799 700.148 249.199C806.155 319.352 879.768 418.238 905.218 544.38C911.222 574.499 914.333 605.124 914.507 635.836C914.529 650.453 913.371 665.282 913.287 679.934C913.128 707.786 913.171 735.659 913.172 763.514L913.17 1087.1C871.736 1084.57 861.205 1081.69 823.04 1067.25C818.389 1064 807.558 1059.5 801.445 1055.7C776.798 1040.24 755.419 1020.1 738.517 996.424C725.922 1006.77 715.757 1014.24 701.864 1022.58C698.802 1025.08 695.209 1027.39 691.905 1029.61C690.845 1029.62 673.499 1039.41 670.635 1040.92C639.376 1057.63 606.211 1070.5 571.863 1079.24C298.059 1146.83 29.0002 962.512 2.595 678.363C2.02447 672.224 1.71943 663.95 0.20396 658.14L0 657.386V616.607ZM616.167 805.941L623.152 800.43C623.735 797.659 640.179 781.422 643.787 775.148C660.835 754.896 677.426 716.856 683.481 690.983C694.742 642.875 690.775 591.494 671.411 545.917C663.972 528.407 654.762 514.973 644.861 499.101C640.203 495.039 624.159 475.317 620.143 470.041L617.004 468.927C615.353 465.828 609.782 461.151 606.976 458.799C533.945 397.601 430.753 387.089 346.79 432.316C292.102 461.934 251.544 512.211 234.168 571.928C217.089 630.924 223.979 694.276 253.341 748.222C315.144 861.166 457.828 902.618 570.171 839.938C584.495 831.946 605.401 818.339 616.167 805.941Z" fill="white"/>
<path d="M652.053 223.75C671.613 230.834 684.566 241.799 700.148 249.199C806.155 319.352 879.768 418.238 905.218 544.38C911.222 574.499 914.333 605.124 914.507 635.836C914.529 650.453 913.371 665.282 913.287 679.934C913.128 707.786 913.171 735.659 913.172 763.514L913.17 1087.1C871.736 1084.57 861.205 1081.69 823.04 1067.25C818.389 1064 807.558 1059.5 801.445 1055.7C776.798 1040.24 755.419 1020.1 738.517 996.424C725.922 1006.77 715.757 1014.24 701.864 1022.58C703.501 1017.93 706.512 1016.38 710.839 1014.56L711.737 1014.19L711.906 1013.29C707.426 1008.54 701.74 1004.42 697.773 999.946C658.023 955.15 637.004 901.477 635.521 841.641C635.379 835.885 636.119 792.099 634.689 790.54C632.206 793.506 626.717 800.007 623.152 800.43C623.735 797.659 640.179 781.422 643.787 775.148C660.835 754.896 677.426 716.856 683.481 690.983C694.742 642.875 690.775 591.494 671.411 545.917C663.972 528.407 654.762 514.973 644.861 499.101C640.203 495.039 624.159 475.317 620.143 470.041C624.736 471.955 630.863 479.106 635.185 483.062C636.057 479.433 635.569 449.476 635.565 443.21L635.476 341.92C635.459 335.391 635.326 329.036 635.418 322.119C635.763 296.137 632.216 252.604 658.53 237.621C660.852 236.299 663.36 235.01 665.039 232.98C662.703 230.016 656.706 228.485 652.099 225.816L652.053 223.75Z" fill="white"/>
<path d="M652.053 223.75C671.613 230.834 684.566 241.799 700.148 249.199C697.77 254.284 700.124 266.367 698.827 271.524L699.052 694.848L699.027 821.221C699.016 845.118 698.49 872.15 700.34 895.661C702.118 918.26 714.88 963.335 728.389 981.646C732.532 985.953 735.426 991.291 738.517 996.424C725.922 1006.77 715.757 1014.24 701.864 1022.58C703.501 1017.93 706.512 1016.38 710.839 1014.56L711.737 1014.19L711.906 1013.29C707.426 1008.54 701.74 1004.42 697.773 999.946C658.023 955.15 637.004 901.477 635.521 841.641C635.379 835.885 636.119 792.099 634.689 790.54C632.206 793.506 626.717 800.007 623.152 800.43C623.735 797.659 640.179 781.422 643.787 775.148C660.835 754.896 677.426 716.856 683.481 690.983C694.742 642.875 690.775 591.494 671.411 545.917C663.972 528.407 654.762 514.973 644.861 499.101C640.203 495.039 624.159 475.317 620.143 470.041C624.736 471.955 630.863 479.106 635.185 483.062C636.057 479.433 635.569 449.476 635.565 443.21L635.476 341.92C635.459 335.391 635.326 329.036 635.418 322.119C635.763 296.137 632.216 252.604 658.53 237.621C660.852 236.299 663.36 235.01 665.039 232.98C662.703 230.016 656.706 228.485 652.099 225.816L652.053 223.75Z" fill="white"/>
<path d="M652.053 223.75C671.613 230.834 684.566 241.799 700.148 249.199C697.77 254.284 700.124 266.367 698.827 271.524C694.842 266.178 702.841 247.199 688.667 246.364C682.094 245.976 679.208 244.711 672.468 246.574L671.708 246.779C639.727 255.616 645.459 319.747 645.454 346.33L645.473 417.359L645.523 469.099C645.534 476.78 645.251 491.091 646.057 498.285L644.861 499.101C640.203 495.039 624.159 475.317 620.143 470.041C624.736 471.955 630.863 479.106 635.185 483.062C636.057 479.433 635.569 449.476 635.565 443.21L635.476 341.92C635.459 335.391 635.326 329.036 635.418 322.119C635.763 296.137 632.216 252.604 658.53 237.621C660.852 236.299 663.36 235.01 665.039 232.98C662.703 230.016 656.706 228.485 652.099 225.816L652.053 223.75Z" fill="white"/>
<path d="M643.787 775.148C644.222 775.698 644.746 776.36 645.36 777.135C646.091 794.94 644.902 818.135 645.413 835.422C647.12 893.174 662.662 943.896 701.256 987.997C703.713 990.804 718.29 1006.29 720.848 1007.22C724.109 1004.8 733.901 998.086 734.633 994.658C732.331 990.759 729.04 985.987 728.389 981.646C732.532 985.953 735.426 991.291 738.517 996.424C725.922 1006.77 715.757 1014.24 701.864 1022.58C703.501 1017.93 706.512 1016.38 710.839 1014.56L711.737 1014.19L711.906 1013.29C707.426 1008.54 701.74 1004.42 697.773 999.946C658.023 955.15 637.004 901.477 635.521 841.641C635.379 835.885 636.119 792.099 634.689 790.54C632.206 793.506 626.717 800.007 623.152 800.43C623.735 797.659 640.179 781.422 643.787 775.148Z" fill="white"/>
<path d="M805.618 0H821.382C841.334 5.6648 849.444 3.59311 869.941 15.9058C895.242 31.1146 913.395 55.8264 920.343 84.5178C927.319 112.998 922.671 143.085 907.425 168.132C875.935 219.787 807.6 236.465 755.634 205.108C703.441 172.556 686.709 103.034 720.423 51.1611C743.522 15.6215 766.88 8.52871 805.618 0Z" fill="#EF7A06"/>
<path d="M738.517 996.424C755.419 1020.1 776.798 1040.24 801.445 1055.7C807.558 1059.5 818.389 1064 823.04 1067.25C805.537 1070.95 738.299 1006.95 728.875 1006.85C723.807 1012.38 698.352 1030.96 691.905 1029.61C695.209 1027.39 698.802 1025.08 701.864 1022.58C715.757 1014.24 725.922 1006.77 738.517 996.424Z" fill="white"/>
</svg>
